<svg width="512px" height="512px" viewBox="0 0 512 512" version="1.1" xmlns="http://www.w3.org/2000/svg" xmlns:xlink="http://www.w3.org/1999/xlink">
    <title>Artboard</title>
    <g id="Artboard" stroke="none" stroke-width="1" fill="none" fill-rule="evenodd">
        <circle id="Oval" fill="#FFFFFF" cx="138.5" cy="318.5" r="69.5"></circle>
        <circle id="Oval" fill="#FFFFFF" cx="280" cy="249" r="98"></circle>
        <g id="Black-Copy" transform="translate(6.5, 89.5)" fill="#000000">
            <path d="M138.139813,201.690365 C134.32033,201.235725 130.520186,201.593633 126.845746,202.783433 C112.940892,207.281458 105.292256,222.245854 109.78861,236.175221 C112.940892,245.954798 121.624174,253.093599 131.854588,254.322091 C135.674071,254.767057 139.474215,254.370457 143.148655,253.209677 C157.043839,248.692306 164.692475,233.737582 160.22513,219.827561 C157.053509,210.038312 148.350888,202.918857 138.139813,201.690365" id="Fill-17"></path>
            <path d="M284.697898,168.690662 L259.456197,186.622366 C258.133783,187.568681 257.043033,186.99896 257.043033,185.36705 L257.043033,148.586296 C257.043033,146.944729 258.133783,146.365353 259.456197,147.321324 L284.697898,165.262684 C286.020312,166.199343 286.020312,167.744347 284.697898,168.690662 M283.558884,125.295359 C277.545278,123.045447 271.184177,122.137757 264.726548,122.630227 C240.286018,124.416638 221.859094,145.795632 223.615878,170.274291 C224.909334,187.510743 236.183639,202.622814 252.400104,208.677299 C258.384752,210.936868 264.765159,211.86387 271.242092,211.3714 C295.721233,209.55602 314.15781,188.196338 312.381721,163.727336 C311.10757,146.471572 299.775349,131.378813 283.558884,125.295359" id="Fill-18"></path>
            <path d="M348.114495,178.031922 L338.251591,178.763497 C337.021131,185.646071 334.800536,192.191737 331.733999,198.313859 L339.260952,204.821021 C343.95208,208.84468 344.47118,215.939026 340.433734,220.636503 L332.233874,230.14697 C330.272828,232.399449 327.561972,233.795216 324.591565,234.016614 C321.582706,234.247637 318.708429,233.265787 316.439769,231.311714 L308.960881,224.804552 C303.366134,228.741577 297.194609,231.879646 290.552049,234.093621 L291.273022,243.969875 C291.724831,250.130502 287.081768,255.530676 280.929469,255.983097 L268.413387,256.916816 C262.241862,257.369237 256.8586,252.710264 256.416404,246.540012 L255.695431,236.673384 C248.812547,235.450884 242.256504,233.246535 236.142657,230.166222 L229.653904,237.703363 C227.692859,239.965468 224.953163,241.351609 221.973144,241.563381 C219.002737,241.765526 216.099621,240.802928 213.840574,238.829603 L204.314124,230.657147 C202.074302,228.703073 200.690035,225.959669 200.47855,222.985242 C200.257451,219.972311 201.199522,217.084517 203.150955,214.822412 L209.64932,207.323775 C205.746456,201.721455 202.593402,195.551203 200.401646,188.8804 L190.529129,189.631226 C184.357604,190.083647 178.96473,185.415048 178.541759,179.23517 L177.628527,166.731023 C177.186331,160.570397 181.810168,155.170223 187.97208,154.717802 L197.834984,153.986228 C199.075057,147.084401 201.266813,140.500232 204.314124,134.435865 L196.816009,127.919078 C194.566575,125.984256 193.211147,123.240852 192.980436,120.256799 C192.759337,117.26312 193.720634,114.3657 195.681679,112.113221 L203.862314,102.583502 C207.784405,98.0496666 215.15755,97.5106118 219.666032,101.447637 L227.14492,107.916295 C232.758892,104.008147 238.901578,100.879704 245.563364,98.6368513 L244.842392,88.7702233 C244.390582,82.590345 249.014419,77.209423 255.185944,76.757002 L267.634736,75.85216 C273.796648,75.409365 279.179909,80.0298347 279.631719,86.209713 L280.352691,96.0955929 C287.235576,97.3277182 293.801232,99.5128153 299.895853,102.583502 L306.394219,95.0463613 C310.277857,90.5028994 317.651003,89.9830965 322.188323,93.8719919 L331.685935,102.11183 C336.357836,106.183618 336.867324,113.249087 332.829878,117.946564 L326.360351,125.435576 C330.272828,131.057147 333.416269,137.217773 335.608025,143.869324 L345.518994,143.13775 C351.671293,142.666077 357.064167,147.334677 357.525589,153.514555 L358.448434,166.018701 C358.900244,172.169701 354.266794,177.579501 348.114495,178.031922 L348.114495,178.031922 Z M181.810168,238.434938 C185.097803,240.109858 186.395553,244.172021 184.703671,247.425602 L181.319907,254.086779 C180.531643,255.665439 179.137763,256.859061 177.436268,257.388489 C175.753999,257.956422 173.9756,257.812032 172.379848,256.974572 L167.131168,254.308176 C164.429924,257.349986 161.334549,260.026008 157.796977,262.259235 L159.613828,267.861554 C160.748158,271.355784 158.787112,275.119542 155.307218,276.265033 L148.212849,278.54639 C144.742568,279.682256 140.964672,277.75706 139.820729,274.233952 L138.023104,268.650884 C133.889528,268.910786 129.784791,268.554625 125.843475,267.659409 L123.151844,272.886315 C122.363581,274.484227 120.969701,275.668223 119.297045,276.197651 C117.595549,276.77521 115.797925,276.621195 114.211785,275.802986 L107.549999,272.39539 C105.973472,271.586808 104.791078,270.191041 104.271977,268.496869 C103.685586,266.812322 103.829781,265.002638 104.666109,263.385474 L107.348127,258.168194 C104.291203,255.47292 101.618798,252.344477 99.3885902,248.821369 L93.7938434,250.621427 C90.3235624,251.795796 86.5456664,249.860974 85.4305623,246.347492 L83.1330632,239.262772 C81.9987331,235.758916 83.9309394,231.995158 87.4204464,230.840041 L93.0344191,229.049609 C92.755643,224.920064 93.0824839,220.800145 94.0053287,216.853494 L88.7662618,214.167846 C87.1993482,213.378516 86.0169533,212.002001 85.4786271,210.298202 C84.9018491,208.584778 85.0652695,206.794346 85.8823717,205.196434 L89.275749,198.564135 C90.9003404,195.36831 95.091594,193.991795 98.2542601,195.647463 L103.493327,198.333111 C106.165732,195.252798 109.289946,192.56715 112.798679,190.333923 L111.010667,184.741229 C109.88595,181.266251 111.818156,177.46399 115.307663,176.357002 L122.382807,174.066019 C125.901153,172.920528 129.65021,174.845723 130.78454,178.34958 L132.572552,183.951899 C136.725353,183.691998 140.839703,184.048159 144.761794,184.953001 L147.443812,179.706843 C149.05879,176.520644 153.201979,175.192259 156.383871,176.790171 L163.05527,180.197767 C166.333291,181.872688 167.631042,185.896347 165.948773,189.198057 L163.266755,194.424964 C166.304453,197.120238 168.996083,200.229429 171.207066,203.781415 L176.801812,201.971731 C180.310545,200.835865 184.049989,202.770687 185.213158,206.274543 L187.414528,213.359264 C188.539245,216.834242 186.616652,220.617251 183.117532,221.762743 L177.532398,223.562801 C177.791948,227.701972 177.465107,231.773761 176.542262,235.768542 L181.810168,238.434938 Z M473.62139,183.220325 C460.69195,169.368542 443.888484,160.15648 425.585395,156.691128 C424.489517,137.699072 420.221359,119.294201 412.809762,101.803798 C404.47532,82.0416643 392.536015,64.3106118 377.337914,49.0823137 C362.130201,33.8636416 344.40389,21.9081763 324.687695,13.5528269 C304.26014,4.87982024 282.544448,0.5 260.213526,0.5 C228.260024,0.5 197.258206,9.63505364 170.543771,26.9136851 C146.453676,42.4692665 126.862449,63.8870687 113.586942,89.1552624 C84.065521,91.1670919 56.5820487,103.767498 35.606555,125.012032 C12.9584051,147.921861 0.5,178.311076 0.5,210.548478 C0.5,242.949522 13.0833736,273.463874 35.9237829,296.421832 C56.6781784,317.290954 83.6617764,329.708466 112.721775,331.883937 L112.856357,332.5 L416.453076,332.5 L416.539593,331.932067 C437.342053,330.228269 456.654504,321.276109 471.583441,306.326964 C488.261939,289.587388 497.5,267.332125 497.5,243.681096 C497.442322,221.156306 488.992524,199.709626 473.62139,183.220325 L473.62139,183.220325 Z" id="Fill-19"></path>
        </g>
    </g>
</svg>